<?xml version="1.0" standalone="no"?>
<!DOCTYPE svg PUBLIC "-//W3C//DTD SVG 20010904//EN"
 "http://www.w3.org/TR/2001/REC-SVG-20010904/DTD/svg10.dtd">
<svg version="1.0" xmlns="http://www.w3.org/2000/svg"
 width="101.000000pt" height="101.000000pt" viewBox="0 0 101.000000 101.000000"
 preserveAspectRatio="xMidYMid meet">
<metadata>
Created by potrace 1.11, written by Peter Selinger 2001-2013
</metadata>
<g transform="translate(0.000000,101.000000) scale(0.100000,-0.100000)"
fill="#000000" stroke="none">
<path d="M140 910 c0 -11 -4 -20 -10 -20 -5 0 -10 -9 -10 -20 0 -14 7 -20 21
-20 16 0 20 5 16 20 -4 15 0 20 14 20 12 0 19 7 19 20 0 15 -7 20 -25 20 -18
0 -25 -5 -25 -20z"/>
<path d="M220 885 c0 -21 5 -25 30 -25 25 0 30 4 30 25 0 21 -5 25 -30 25 -25
0 -30 -4 -30 -25z"/>
<path d="M192 823 c2 -22 8 -28 28 -28 20 0 26 6 28 28 3 24 0 27 -28 27 -28
0 -31 -3 -28 -27z"/>
<path d="M462 838 c-8 -8 -12 -48 -12 -120 0 -65 -4 -108 -10 -108 -5 0 -10
-18 -10 -40 0 -39 -1 -40 -34 -40 -25 0 -35 -5 -39 -20 -4 -15 -14 -20 -41
-20 -32 0 -36 -3 -36 -25 0 -20 -5 -25 -25 -25 -22 0 -25 -4 -25 -35 0 -33 2
-35 34 -35 33 0 35 2 39 38 l4 37 1 -43 2 -44 70 4 70 3 0 -106 c0 -68 4 -109
12 -117 9 -9 84 -12 275 -12 l263 0 0 29 0 29 -135 7 c-74 4 -141 5 -150 2
-13 -5 -15 7 -15 81 l0 87 103 0 c56 0 110 3 120 7 15 6 17 22 17 107 0 55 -3
106 -6 115 -5 13 -25 16 -120 16 l-113 0 -3 118 -3 117 -110 3 c-77 2 -114 -1
-123 -10z"/>
<path d="M280 805 c0 -18 5 -25 20 -25 15 0 20 7 20 25 0 18 -5 25 -20 25 -15
0 -20 -7 -20 -25z"/>
<path d="M107 814 c-4 -4 -7 -18 -7 -31 0 -19 5 -23 31 -23 27 0 30 3 27 28
-3 26 -34 43 -51 26z"/>
<path d="M170 705 l0 -45 -40 0 -40 0 0 -40 0 -40 40 0 40 0 0 40 0 40 45 0
45 0 0 45 0 45 -45 0 -45 0 0 -45z"/>
<path d="M280 720 c0 -27 3 -30 30 -30 27 0 30 3 30 30 0 27 -3 30 -30 30 -27
0 -30 -3 -30 -30z"/>
<path d="M360 670 c0 -27 3 -30 30 -30 27 0 30 3 30 30 0 27 -3 30 -30 30 -27
0 -30 -3 -30 -30z"/>
<path d="M280 610 c0 -27 3 -30 30 -30 27 0 30 3 30 30 0 27 -3 30 -30 30 -27
0 -30 -3 -30 -30z"/>
<path d="M210 580 c0 -27 3 -30 29 -30 35 0 42 8 34 38 -4 16 -13 22 -34 22
-26 0 -29 -4 -29 -30z"/>
<path d="M350 575 c0 -33 2 -35 35 -35 33 0 35 2 35 35 0 33 -2 35 -35 35 -33
0 -35 -2 -35 -35z"/>
<path d="M300 531 c0 -15 6 -21 21 -21 14 0 19 5 17 17 -5 26 -38 29 -38 4z"/>
<path d="M180 495 c0 -44 3 -47 35 -47 54 0 55 0 55 47 l0 45 -45 0 -45 0 0
-45z"/>
</g>
</svg>
